# xmcd CD database file
#
# Track frame offsets:
#	150
#	9880
#	27750
#	43007
#	56142
#	71432
#	87485
#	100675
#	115610
#	125375
#	143197
#	160617
#	177740
#	193145
#	206412
#	220342
#	233670
#	249325
#	258927
#	270860
#	292570
#	306787
#
# Disc length: 4213 seconds
#
# Revision: 2
# Processed by: cddbd v1.4PL0 Copyright (c) Steve Scherf et al.
# Submitted via: CDex 1.40Beta8
#
DISCID=25107316
DTITLE=Buddy Greene - So Far
DYEAR=1900
DGENRE=Gospel
TTITLE0=Lord, I Want to Thank You
TTITLE1=What a Friend We Have in Jesus - His Eye Is On the Sparrow
TTITLE2=Since Jesus Came Info My Heart - Tender Love and Care
TTITLE3=More Like You
TTITLE4=There is a Balm in Gilead - Amen - Joshua Fit the Battle
TTITLE5=Keep Your Head in the Word
TTITLE6=Short of the Mark
TTITLE7=Savior Like a Shepherd Lead Us - Psalm 23
TTITLE8=Jesu, Joy of Man's Desiring
TTITLE9=Virtuous Woman
TTITLE10=Praise You, Lord
TTITLE11=He Is
TTITLE12=Life is Like a Mountain Railroad - This Train
TTITLE13=Rest Awhile
TTITLE14=Amazing Grace
TTITLE15=Holy Father
TTITLE16=Where You There - When I Survey the Wondrous Cross - The Old Rugged Cross
TTITLE17=How Gracious is the Lord
TTITLE18=When the Roll is called up Yonder - I'll Fly Away
TTITLE19=Something About That Name - Oh, How I Love Jesus
TTITLE20=Oh Lord, How I Need You
TTITLE21=I Need Thee Every Hour - My Jesus I Love Thee
EXTD=ID3G: 38
EXTT0=
EXTT1=
EXTT2=
EXTT3=
EXTT4=
EXTT5=
EXTT6=
EXTT7=
EXTT8=
EXTT9=
EXTT10=
EXTT11=
EXTT12=
EXTT13=
EXTT14=
EXTT15=
EXTT16=
EXTT17=
EXTT18=
EXTT19=
EXTT20=
EXTT21=
PLAYORDER=
